<?xml version="1.0" standalone="no"?>
<!DOCTYPE svg PUBLIC "-//W3C//DTD SVG 20010904//EN"
 "http://www.w3.org/TR/2001/REC-SVG-20010904/DTD/svg10.dtd">
<svg version="1.0" xmlns="http://www.w3.org/2000/svg"
 width="700.000000pt" height="700.000000pt" viewBox="0 0 700.000000 700.000000"
 preserveAspectRatio="xMidYMid meet">
<metadata>
Created by potrace 1.14, written by Peter Selinger 2001-2017
</metadata>
<g transform="translate(0.000000,700.000000) scale(0.100000,-0.100000)"
fill="#000000" stroke="none">
<path d="M5155 6101 c-45 -21 -76 -51 -96 -96 -14 -29 -20 -31 -149 -57 -74
-15 -148 -30 -165 -33 -16 -3 -73 -14 -125 -25 -52 -10 -106 -21 -120 -24 -14
-3 -35 -7 -46 -10 -12 -2 -39 -7 -60 -10 -22 -4 -46 -8 -54 -11 -8 -2 -28 -6
-44 -9 -277 -48 -464 -125 -663 -273 -220 -165 -386 -403 -484 -698 -24 -71
-44 -131 -45 -133 -1 -2 -43 -5 -94 -7 -71 -3 -103 -10 -147 -30 -70 -32 -137
-102 -164 -174 -21 -54 -22 -73 -23 -456 l-1 -400 -193 0 -194 0 -28 73 c-46
118 -128 210 -234 262 -111 55 -128 56 -661 55 -469 -2 -493 -3 -552 -23 -156
-52 -272 -172 -322 -333 -10 -33 -14 -35 -49 -34 -131 4 -244 -71 -282 -188
-17 -54 -17 -800 1 -854 23 -74 76 -132 149 -166 38 -17 66 -21 175 -21 l130
-2 3 -112 3 -112 -31 -1 c-16 -1 -33 -2 -37 -3 -160 -36 -253 -86 -358 -191
-97 -98 -158 -210 -183 -335 -8 -44 -9 -203 0 -250 10 -58 41 -143 65 -182 13
-21 23 -40 23 -44 0 -4 23 -35 51 -69 61 -75 139 -136 234 -181 140 -67 47
-64 1934 -63 1404 1 1717 3 1770 15 120 25 257 105 344 198 36 39 132 186 122
186 -3 0 1 12 8 27 41 81 56 264 31 372 -52 226 -203 402 -414 482 -98 38
-187 45 -547 44 -224 0 -343 3 -344 10 -4 37 -3 205 1 206 3 1 212 2 465 3
535 2 534 2 624 96 77 81 83 116 82 473 0 165 -3 333 -6 376 -14 189 -17 214
-29 301 -3 19 -8 53 -11 75 -3 23 -7 50 -9 60 -3 11 -14 65 -25 120 -11 55
-36 174 -56 265 -20 91 -38 173 -40 183 -32 155 -141 272 -313 334 -23 8 -23
8 19 68 86 125 220 217 344 238 17 3 158 31 314 62 157 31 296 59 310 62 14 2
44 8 66 13 22 5 40 8 41 7 0 -1 13 -38 28 -82 16 -43 111 -248 213 -455 297
-602 393 -798 393 -804 0 -3 -13 -27 -29 -53 -70 -115 -84 -240 -44 -388 28
-101 27 -178 -5 -243 -10 -20 -76 -134 -147 -252 -111 -185 -129 -222 -133
-266 -9 -114 89 -210 203 -197 22 2 67 15 100 28 33 13 148 55 256 94 108 38
238 86 290 105 79 29 216 79 389 142 85 30 135 57 188 98 66 52 87 74 129 136
67 99 95 187 99 316 5 156 -39 293 -134 412 -91 115 -187 219 -233 251 -64 44
-157 80 -226 87 -32 3 -61 9 -64 12 -4 4 -25 93 -48 197 -24 105 -44 197 -46
205 -2 8 -15 69 -30 135 -29 133 -43 198 -73 330 -12 50 -24 105 -27 124 -3
19 -8 37 -10 41 -2 4 -6 20 -9 36 -13 69 -77 345 -86 371 -34 90 -70 144 -139
213 -76 75 -113 99 -495 314 -102 57 -156 66 -221 37z"/>
</g>
</svg>
